Primeira temporada dublada dos Vingadores, desenho animado.


General
Complete name                            : C:UsersleonDesktopFilmesVING-1TEMP.Up.By.LeosevenVING-1TEMP.Up.By.LeosevenVING-01.avi
Format                                   : AVI
Format/Info                              : Audio Video Interleave
File size                                : 174 MiB
Duration                                 : 21mn 28s
Overall bit rate                         : 1 135 Kbps
Writing library                          : VirtualDub-MPEG2 build 24586/release

Video
ID                                       : 0
Format                                   : MPEG-4 Visual
Format settings, BVOP                    : 1
Format settings, QPel                    : No
Format settings, GMC                     : No warppoints
Format settings, Matrix                  : Default (H.263)
Muxing mode                              : Packed bitstream
Codec ID                                 : DX50
Codec ID/Hint                            : DivX 5
Duration                                 : 21mn 28s
Bit rate                                 : 1 067 Kbps
Width                                    : 640 pixels
Height                                   : 432 pixels
Display aspect ratio                     : 3:2
Frame rate                               : 29.970 fps
Color space                              : YUV
Chroma subsampling                       : 4:2:0
Bit depth                                : 8 bits
Scan type                                : Progressive
Compression mode                         : Lossy
Bits/(Pixel*Frame)                       : 0.129
Stream size                              : 164 MiB (94%)
Writing library                          : DivX 6.8.5 (UTC 2009-08-20)

Audio
ID                                       : 1
Format                                   : MPEG Audio
Format version                           : Version 2
Format profile                           : Layer 3
Mode                                     : Joint stereo
Mode extension                           : Intensity Stereo + MS Stereo
Codec ID                                 : 55
Codec ID/Hint                            : MP3
Duration                                 : 21mn 28s
Bit rate mode                            : Constant
Bit rate                                 : 56.0 Kbps
Channel(s)                               : 2 channels
Sampling rate                            : 24.0 KHz
Compression mode                         : Lossy
Stream size                              : 8.60 MiB (5%)
Alignment                                : Split accross interleaves
Interleave, duration                     : 33 ms (1.00 video frame)
Interleave, preload duration             : 500 ms